<svg width="24" height="24" viewBox="0 0 24 24" fill="none" xmlns="http://www.w3.org/2000/svg">
<path d="M20.75 14.66C20.75 14.2458 20.4142 13.91 20 13.91C19.5858 13.91 19.25 14.2458 19.25 14.66H20.75ZM2 20H1.25H2ZM4 4V3.25V4ZM9.34 4.75C9.75421 4.75 10.09 4.41421 10.09 4C10.09 3.58579 9.75421 3.25 9.34 3.25V4.75ZM18 2L18.5303 1.46967C18.2374 1.17678 17.7626 1.17678 17.4697 1.46967L18 2ZM22 6L22.5303 6.53033C22.8232 6.23744 22.8232 5.76256 22.5303 5.46967L22 6ZM12 16V16.75C12.1989 16.75 12.3897 16.671 12.5303 16.5303L12 16ZM8 16H7.25C7.25 16.4142 7.58579 16.75 8 16.75V16ZM8 12L7.46967 11.4697C7.32902 11.6103 7.25 11.8011 7.25 12H8ZM19.25 14.66V20H20.75V14.66H19.25ZM19.25 20C19.25 20.3315 19.1183 20.6495 18.8839 20.8839L19.9445 21.9445C20.4603 21.4288 20.75 20.7293 20.75 20H19.25ZM18.8839 20.8839C18.6495 21.1183 18.3315 21.25 18 21.25V22.75C18.7293 22.75 19.4288 22.4603 19.9445 21.9445L18.8839 20.8839ZM18 21.25H4V22.75H18V21.25ZM4 21.25C3.66848 21.25 3.35054 21.1183 3.11612 20.8839L2.05546 21.9445C2.57118 22.4603 3.27065 22.75 4 22.75V21.25ZM3.11612 20.8839C2.8817 20.6495 2.75 20.3315 2.75 20H1.25C1.25 20.7293 1.53973 21.4288 2.05546 21.9445L3.11612 20.8839ZM2.75 20V6H1.25V20H2.75ZM2.75 6C2.75 5.66848 2.8817 5.35054 3.11612 5.11612L2.05546 4.05546C1.53973 4.57118 1.25 5.27065 1.25 6H2.75ZM3.11612 5.11612C3.35054 4.8817 3.66848 4.75 4 4.75V3.25C3.27065 3.25 2.57118 3.53973 2.05546 4.05546L3.11612 5.11612ZM4 4.75H9.34V3.25H4V4.75ZM17.4697 2.53033L21.4697 6.53033L22.5303 5.46967L18.5303 1.46967L17.4697 2.53033ZM21.4697 5.46967L11.4697 15.4697L12.5303 16.5303L22.5303 6.53033L21.4697 5.46967ZM12 15.25H8V16.75H12V15.25ZM8.75 16V12H7.25V16H8.75ZM8.53033 12.5303L18.5303 2.53033L17.4697 1.46967L7.46967 11.4697L8.53033 12.5303Z" fill="#2C528B"/>
</svg>
