<svg width="17" height="17" viewBox="0 0 17 17" fill="none" xmlns="http://www.w3.org/2000/svg">
<path fill-rule="evenodd" clip-rule="evenodd" d="M2.125 6.54829V4.41587C2.125 3.48423 2.76826 2.67598 3.67614 2.46689L8.23438 1.4171V1.41699L8.23462 1.41705L8.23486 1.41699L12.7937 2.4669C13.7016 2.67598 14.3448 3.48424 14.3448 4.41588V6.54829C14.3449 8.49225 13.763 10.3917 12.6741 12.002C11.5851 13.6124 10.039 14.8598 8.23486 15.5837L8.23462 15.5836L8.23438 15.5837V15.5835C6.43045 14.8595 4.88454 13.6122 3.79571 12.002C2.70678 10.3917 2.1249 8.49223 2.125 6.54829ZM8.28469 11.7912C10.2542 11.7912 11.8508 10.1946 11.8508 8.22507C11.8508 6.25555 10.2542 4.65894 8.28469 4.65894C6.31517 4.65894 4.71855 6.25555 4.71855 8.22507C4.71855 10.1946 6.31517 11.7912 8.28469 11.7912Z" fill="#3A3A3C"/>
<path d="M9.82136 7.68084H8.76893V6.60449H7.7165V7.68084H6.66406V8.7572H7.7165V9.83355H8.76893V8.7572H9.82136V7.68084Z" fill="#3A3A3C"/>
</svg>
