<svg width="113" height="32" viewBox="0 0 113 32" fill="none" xmlns="http://www.w3.org/2000/svg">
<path d="M51.043 13.1398C50.9657 12.9594 50.8626 12.8306 50.7338 12.7276C50.5792 12.6245 50.4246 12.573 50.2701 12.573C50.0897 12.5472 49.9351 12.5987 49.7805 12.7018C49.6259 12.8049 49.4971 12.9594 49.4456 13.1398L45.9158 21.5907C45.89 21.6937 45.8643 21.771 45.8643 21.8483C45.8643 22.0545 45.9158 22.2348 46.0446 22.3636C46.1734 22.4925 46.3538 22.5698 46.6114 22.5698C46.766 22.5698 46.9206 22.5182 47.0494 22.4152C47.1783 22.3121 47.2813 22.1833 47.3586 22.0029L48.08 20.2767H52.3055L53.0269 21.9772C53.1042 22.1575 53.2073 22.2863 53.3361 22.3894C53.4649 22.4925 53.6195 22.544 53.7998 22.544C54.006 22.544 54.1863 22.4667 54.3409 22.3121C54.4955 22.1575 54.5986 21.9514 54.5986 21.6937C54.5986 21.5907 54.5728 21.4876 54.5213 21.3588L51.043 13.1398ZM48.7757 18.6793L50.1928 15.3813L51.6098 18.6793H48.7757Z" fill="#128EBF"/>
<path d="M56.6602 12.084C56.4025 12.084 56.2222 12.1613 56.0418 12.3416C55.8872 12.4962 55.7842 12.7023 55.7842 12.96V21.6943C55.7842 21.9519 55.8615 22.1323 56.0161 22.3126C56.1707 22.4672 56.3768 22.5703 56.6087 22.5703C56.8405 22.5703 57.0467 22.493 57.227 22.3126C57.3816 22.1581 57.4847 21.9519 57.4847 21.6943V12.9342C57.4847 12.6766 57.4074 12.4962 57.2528 12.3159C57.0982 12.1613 56.9178 12.084 56.6602 12.084Z" fill="#128EBF"/>
<path d="M62.8688 16.6694C63.1007 16.6694 63.2811 16.5921 63.4357 16.4633C63.5903 16.3087 63.6676 16.1283 63.6676 15.9222C63.6676 15.6903 63.5903 15.51 63.4357 15.3554C63.2811 15.2008 63.1007 15.1235 62.8688 15.1235H61.864V14.2217C61.864 13.9898 61.7867 13.7837 61.6321 13.6034C61.4775 13.4488 61.2714 13.3457 61.0395 13.3457C60.7819 13.3457 60.6015 13.423 60.4212 13.6034C60.2666 13.7579 60.1635 13.9641 60.1635 14.2217V15.1235H59.5194C59.2875 15.1235 59.1072 15.2008 58.9526 15.3296C58.798 15.4842 58.7207 15.6645 58.7207 15.8707C58.7207 16.1025 58.798 16.2829 58.9526 16.4375C59.1072 16.5921 59.2875 16.6694 59.5194 16.6694H60.1635V20.5599C60.1635 21.0236 60.2408 21.3843 60.3697 21.642C60.4985 21.8996 60.6788 22.1058 60.9107 22.2346C61.1168 22.3634 61.3487 22.4407 61.5806 22.4665C61.8125 22.4922 62.0444 22.518 62.2505 22.518C62.5854 22.518 62.8946 22.4407 63.178 22.2604C63.4614 22.08 63.616 21.8739 63.616 21.6162C63.616 21.4101 63.5645 21.2298 63.4614 21.1009C63.3584 20.9721 63.2295 20.9206 63.1007 20.9206C62.9719 20.9206 62.8688 20.9463 62.7658 20.9721C62.6627 21.0236 62.5597 21.0236 62.4566 21.0236C62.3535 21.0236 62.2505 20.9979 62.1732 20.9721C62.0959 20.9463 62.0186 20.869 61.9671 20.7918C61.9155 20.7145 61.8898 20.6114 61.8898 20.4568V16.6694H62.8688Z" fill="#128EBF"/>
<path d="M70.8303 15.9481C70.4953 15.6132 70.1089 15.3298 69.6966 15.1236C69.2586 14.9175 68.8206 14.8145 68.3311 14.8145C67.7127 14.8145 67.1201 14.969 66.5533 15.304C65.9865 15.6389 65.5485 16.0769 65.2135 16.6695C64.8786 17.2621 64.6982 17.9835 64.6982 18.8338C64.6982 19.5552 64.8528 20.1993 65.162 20.7919C65.4712 21.3587 65.935 21.8225 66.5276 22.1574C67.1201 22.4924 67.8158 22.647 68.6145 22.647C69.0783 22.647 69.542 22.5697 69.98 22.4151C70.4181 22.2605 70.7788 22.0802 71.0106 21.874C71.2683 21.6679 71.3971 21.436 71.3971 21.1784C71.3971 20.998 71.3198 20.8177 71.191 20.6889C71.0622 20.56 70.8818 20.4827 70.6757 20.4827C70.5211 20.4827 70.3665 20.5343 70.1862 20.6116C70.0831 20.6631 69.98 20.7404 69.8512 20.8177C69.7224 20.895 69.5678 20.9723 69.3617 21.0238C69.1556 21.0753 68.8722 21.1011 68.5372 21.1011C68.1507 21.1011 67.8158 20.998 67.4808 20.8177C67.1459 20.6373 66.8625 20.3539 66.6564 20.019C66.5276 19.8128 66.4503 19.581 66.3987 19.3233H71.0622C71.2941 19.3233 71.4744 19.246 71.6548 19.1172C71.8351 18.9884 71.9124 18.7822 71.9124 18.5761C71.9124 18.0608 71.8094 17.5971 71.629 17.1333C71.4229 16.6953 71.1652 16.2831 70.8303 15.9481ZM66.914 16.8756C67.0944 16.6953 67.3005 16.5665 67.5581 16.4892C67.79 16.4119 68.0734 16.3861 68.3569 16.3861C68.6403 16.3861 68.9237 16.4376 69.1813 16.5665C69.439 16.6953 69.6451 16.8756 69.8255 17.0818C70.0058 17.2879 70.1089 17.5455 70.1089 17.8032V17.9062H66.3987C66.4245 17.8032 66.4503 17.6744 66.476 17.5713C66.6048 17.2879 66.7337 17.056 66.914 16.8756Z" fill="#128EBF"/>
<path d="M80.106 15.0737C79.9514 14.9191 79.7453 14.8418 79.4876 14.8418C79.23 14.8418 79.0496 14.9191 78.8693 15.0994C78.7147 15.254 78.6374 15.4602 78.6374 15.7178C78.5601 15.6405 78.457 15.5632 78.354 15.4859C78.0963 15.3056 77.8129 15.151 77.478 15.0222C77.143 14.8933 76.7566 14.8418 76.3701 14.8418C75.7517 14.8418 75.1591 14.9964 74.6438 15.3313C74.1285 15.6663 73.7163 16.13 73.4071 16.7226C73.0979 17.3152 72.9434 17.9851 72.9434 18.7581C72.9434 19.531 73.0979 20.2009 73.4071 20.7935C73.7163 21.3861 74.1285 21.8498 74.6696 22.1848C75.1849 22.5197 75.7775 22.6743 76.4474 22.6743C76.8081 22.6743 77.143 22.6228 77.4522 22.494C77.7614 22.3651 78.019 22.2363 78.2509 22.056C78.4313 21.9271 78.5601 21.7983 78.6632 21.6695C78.6632 21.9014 78.7405 22.1075 78.895 22.2621C79.0496 22.4167 79.2558 22.5197 79.5134 22.5197C79.7711 22.5197 79.9514 22.4424 80.1318 22.2621C80.2863 22.1075 80.3636 21.9014 80.3636 21.6437V15.692C80.3379 15.4344 80.2606 15.2283 80.106 15.0737ZM78.457 19.969C78.2767 20.3297 78.0448 20.6131 77.7356 20.8193C77.4264 21.0254 77.0657 21.1284 76.6535 21.1284C76.2413 21.1284 75.8806 21.0254 75.5714 20.8193C75.2622 20.6131 75.0303 20.3297 74.85 19.969C74.6696 19.6083 74.5923 19.2218 74.5923 18.7581C74.5923 18.2943 74.6696 17.9078 74.85 17.5471C75.0303 17.1864 75.2622 16.903 75.5714 16.6969C75.8806 16.4908 76.2413 16.3877 76.6535 16.3877C77.0657 16.3877 77.4264 16.4908 77.7356 16.6969C78.0448 16.903 78.2767 17.1864 78.457 17.5471C78.6374 17.9078 78.7147 18.3201 78.7147 18.7581C78.7147 19.1961 78.6374 19.6083 78.457 19.969Z" fill="#128EBF"/>
<path d="M88.7106 20.561C88.5045 20.5352 88.3242 20.561 88.118 20.664C87.8862 20.7928 87.6285 20.8701 87.3709 20.9217C87.1132 20.9732 86.8556 20.999 86.5979 20.999C86.1341 20.999 85.6961 20.9217 85.3097 20.7928C84.9232 20.664 84.5625 20.4579 84.2791 20.1745C83.9957 19.8911 83.7638 19.5304 83.5834 19.1181C83.4288 18.7059 83.3258 18.1906 83.3258 17.6238C83.3258 17.1342 83.4031 16.6962 83.5319 16.284C83.6865 15.8718 83.8926 15.5368 84.176 15.2276C84.4594 14.9184 84.7944 14.7123 85.2066 14.532C85.6189 14.3774 86.0568 14.3001 86.5721 14.3001C86.8556 14.3001 87.1132 14.3259 87.3451 14.3774C87.6027 14.4289 87.8346 14.5062 88.0665 14.6093C88.2726 14.7123 88.453 14.7381 88.6591 14.7123C88.8395 14.6866 89.0198 14.6093 89.1229 14.4289C89.3032 14.2228 89.3805 13.9651 89.329 13.7075C89.2775 13.4499 89.1486 13.2437 88.891 13.1407C88.5303 12.9603 88.1696 12.8315 87.7831 12.7284C87.3966 12.6254 86.9844 12.5996 86.5721 12.5996C85.8507 12.5996 85.1551 12.7284 84.5367 12.9861C83.9184 13.2437 83.3773 13.5787 82.9135 14.0424C82.4498 14.4804 82.1148 15.0215 81.8572 15.6399C81.5995 16.2582 81.4707 16.9281 81.4707 17.6495C81.4707 18.4998 81.5995 19.2212 81.8829 19.8653C82.1663 20.5094 82.5271 21.0247 83.0166 21.4627C83.4804 21.875 84.0214 22.2099 84.6398 22.416C85.2581 22.6222 85.9023 22.751 86.5721 22.751C86.8556 22.751 87.1132 22.7252 87.3709 22.6994C87.6285 22.6479 87.8862 22.5964 88.1438 22.5191C88.4015 22.4418 88.6591 22.3387 88.891 22.2099C89.1229 22.1069 89.2775 21.9265 89.329 21.6689C89.3805 21.4112 89.3032 21.1793 89.1229 20.9474C89.0713 20.6898 88.9167 20.5867 88.7106 20.561Z" fill="#43BEAE"/>
<path d="M96.8792 14.8398C96.6216 14.8398 96.4412 14.9171 96.2609 15.0975C96.1063 15.2521 96.029 15.4582 96.029 15.7159C95.9517 15.6386 95.8486 15.5613 95.7456 15.484C95.4879 15.3036 95.2045 15.149 94.8696 15.0202C94.5346 14.8914 94.1482 14.8398 93.7617 14.8398C93.1433 14.8398 92.5507 14.9944 92.0354 15.3294C91.5201 15.6643 91.1079 16.1281 90.7987 16.7207C90.4895 17.3133 90.335 17.9832 90.335 18.7561C90.335 19.5291 90.4895 20.1989 90.7987 20.7915C91.1079 21.3841 91.5201 21.8479 92.0612 22.1828C92.5765 22.5178 93.1691 22.6724 93.839 22.6724C94.1997 22.6724 94.5346 22.6208 94.8438 22.492C95.153 22.3632 95.4106 22.2344 95.6425 22.054C95.8229 21.9252 95.9517 21.7964 96.0548 21.6675C96.0548 21.8994 96.1321 22.1055 96.2867 22.2601C96.4412 22.4147 96.6474 22.5178 96.905 22.5178C97.1369 22.5178 97.343 22.4405 97.5234 22.2601C97.678 22.1055 97.7552 21.8994 97.7552 21.6418V15.6901C97.7552 15.4324 97.678 15.2263 97.5234 15.0717C97.3172 14.9171 97.1111 14.8398 96.8792 14.8398ZM95.8486 19.9671C95.6683 20.3278 95.4364 20.6112 95.1272 20.8173C94.8181 21.0234 94.4573 21.1265 94.0451 21.1265C93.6329 21.1265 93.2722 21.0234 92.963 20.8173C92.6538 20.6112 92.4219 20.3278 92.2416 19.9671C92.0612 19.6063 91.9839 19.2199 91.9839 18.7561C91.9839 18.2923 92.0612 17.9059 92.2416 17.5452C92.4219 17.1844 92.6538 16.901 92.963 16.6949C93.2722 16.4888 93.6329 16.3857 94.0451 16.3857C94.4573 16.3857 94.8181 16.4888 95.1272 16.6949C95.4364 16.901 95.6683 17.1844 95.8486 17.5452C96.029 17.9059 96.1063 18.3181 96.1063 18.7561C96.1063 19.1941 96.0032 19.6063 95.8486 19.9671Z" fill="#43BEAE"/>
<path d="M104.196 15.0717C103.99 14.9171 103.758 14.8398 103.474 14.8398C103.242 14.8398 103.01 14.8656 102.779 14.9171C102.547 14.9687 102.315 15.0717 102.109 15.1748C101.903 15.3036 101.722 15.4324 101.542 15.6128C101.413 15.7416 101.336 15.8704 101.233 16.025V15.8189C101.233 15.587 101.155 15.3809 101.001 15.2006C100.846 15.046 100.64 14.9429 100.382 14.9429C100.125 14.9429 99.9445 15.0202 99.7641 15.2006C99.6095 15.3551 99.5322 15.5613 99.5322 15.8189V21.6418C99.5322 21.8994 99.6095 22.0798 99.7641 22.2601C99.9187 22.4147 100.125 22.5178 100.382 22.5178C100.614 22.5178 100.82 22.4405 101.001 22.2601C101.155 22.1055 101.233 21.8994 101.233 21.6418V18.2923C101.233 17.9574 101.284 17.6482 101.362 17.4163C101.439 17.1587 101.568 16.9526 101.722 16.798C101.877 16.6176 102.031 16.5146 102.212 16.4115C102.392 16.3342 102.547 16.2827 102.727 16.2827C102.907 16.2827 103.088 16.3084 103.217 16.3857C103.371 16.463 103.526 16.4888 103.706 16.4888C103.887 16.4888 104.067 16.4115 104.221 16.2827C104.376 16.1539 104.453 15.922 104.453 15.6128C104.479 15.4324 104.402 15.2263 104.196 15.0717Z" fill="#43BEAE"/>
<path d="M111.9 19.1191C112.08 18.9903 112.157 18.7842 112.157 18.5781C112.157 18.0628 112.054 17.599 111.874 17.1352C111.668 16.6715 111.41 16.285 111.101 15.9501C110.766 15.6151 110.379 15.3317 109.967 15.1256C109.529 14.9195 109.091 14.8164 108.602 14.8164C107.983 14.8164 107.391 14.971 106.824 15.3059C106.257 15.6151 105.819 16.0789 105.484 16.6715C105.149 17.2641 104.969 17.9855 104.969 18.8357C104.969 19.5571 105.123 20.2013 105.433 20.7939C105.742 21.3607 106.205 21.8245 106.798 22.1594C107.391 22.4943 108.086 22.6489 108.885 22.6489C109.349 22.6489 109.813 22.5716 110.251 22.4171C110.689 22.2625 111.049 22.0821 111.281 21.876C111.539 21.6699 111.668 21.438 111.668 21.1803C111.668 21 111.59 20.8196 111.462 20.6908C111.333 20.562 111.152 20.4847 110.946 20.4847C110.792 20.4847 110.637 20.5362 110.457 20.6135C110.354 20.665 110.251 20.7423 110.122 20.8196C109.993 20.8969 109.838 20.9742 109.632 21.0257C109.426 21.0773 109.143 21.103 108.808 21.103C108.421 21.103 108.086 21 107.751 20.8196C107.416 20.6393 107.133 20.3559 106.927 20.0209C106.798 19.8148 106.721 19.5829 106.669 19.3253H111.307C111.513 19.351 111.719 19.2737 111.9 19.1191ZM107.159 16.8776C107.339 16.6972 107.545 16.5684 107.803 16.4911C108.035 16.4138 108.318 16.3881 108.602 16.3881C108.885 16.3881 109.168 16.4396 109.426 16.5684C109.684 16.6972 109.89 16.8776 110.07 17.0837C110.251 17.2898 110.328 17.5475 110.354 17.8051V17.9082H106.643C106.669 17.8051 106.695 17.6763 106.721 17.5732C106.824 17.2898 106.978 17.058 107.159 16.8776Z" fill="#43BEAE"/>
<path d="M26.2311 32H16.1827C7.21656 32 -0.152201 24.7085 0.00238884 15.7166C0.156978 7.03382 7.26809 0 16.0024 0C20.3051 0 24.2987 1.54589 27.2874 4.35427C29.9412 6.85346 31.5644 10.1771 31.9251 13.81C32.0024 14.6602 31.3325 15.4074 30.4823 15.4074C29.7351 15.4074 29.1167 14.8663 29.0394 14.1192C28.756 11.182 27.442 8.50242 25.3035 6.46699C22.8559 4.17391 19.558 2.91143 16.0024 2.91143C8.96858 2.91143 3.19724 8.47665 2.91382 15.4589C2.57888 22.9308 8.68516 29.1143 16.157 29.1143H26.2053C27.004 29.1143 27.6481 29.7585 27.6481 30.5572C27.6739 31.3559 27.0298 32 26.2311 32Z" fill="#43BEAE"/>
<path d="M12.9109 16.001C12.9109 16.8512 12.2152 17.5726 11.3392 17.5726C10.489 17.5726 9.76758 16.877 9.76758 16.001C9.76758 15.1507 10.4632 14.4551 11.3392 14.4551C12.2152 14.4551 12.9109 15.1507 12.9109 16.001Z" fill="#128EBF"/>
<path d="M17.4714 16.001C17.4714 16.8512 16.7758 17.5726 15.8998 17.5726C15.0495 17.5726 14.3281 16.877 14.3281 16.001C14.3281 15.1507 15.0238 14.4551 15.8998 14.4551C16.7758 14.4551 17.4714 15.1507 17.4714 16.001Z" fill="#128EBF"/>
<path d="M22.238 16.001C22.238 16.8512 21.5424 17.5726 20.6664 17.5726C19.8161 17.5726 19.0947 16.877 19.0947 16.001C19.0947 15.1507 19.7904 14.4551 20.6664 14.4551C21.5424 14.4551 22.238 15.1507 22.238 16.001Z" fill="#128EBF"/>
<path d="M36.6663 22.8016H32.0801V18.2154C32.0801 17.391 31.4102 16.6953 30.56 16.6953C29.7355 16.6953 29.0399 17.3652 29.0399 18.2154V22.8016H24.4537C23.6292 22.8016 22.9336 23.4715 22.9336 24.3217C22.9336 25.172 23.6035 25.8419 24.4537 25.8419H29.0399V30.428C29.0399 31.2525 29.7098 31.9481 30.56 31.9481C31.3845 31.9481 32.0801 31.2782 32.0801 30.428V25.8419H36.6663C37.4908 25.8419 38.1864 25.172 38.1864 24.3217C38.1864 23.4715 37.4908 22.8016 36.6663 22.8016Z" fill="#72CEED"/>
</svg>
