<svg width="1440" height="849" viewBox="0 0 1440 849" fill="none" xmlns="http://www.w3.org/2000/svg">
<rect width="1440" height="849" fill="url(#paint0_linear_32507_90193)"/>
<g clip-path="url(#clip0_32507_90193)">
<path d="M1129.15 848.232L952.367 849L856.965 848.659L792.508 848.403L747.115 848.232H745.405L728.65 848.147H728.052L645.985 847.806H642.309L575.801 847.55L553.404 847.464L522.03 847.379L500.146 847.294L446.717 847.038L431.329 846.952L410.3 846.867L373.028 846.696L315.496 846.44C315.496 846.44 313.53 842.43 310.538 835.093C308.315 829.717 305.665 822.55 302.844 813.933C302.331 812.312 301.818 810.691 301.305 808.984C300.536 806.595 299.852 804.121 299.082 801.561C298.826 800.623 298.57 799.684 298.228 798.66C296.603 792.773 294.979 786.545 293.526 779.89C293.44 779.463 293.355 778.951 293.184 778.525C292.671 775.965 292.073 773.405 291.645 770.76C291.389 769.31 291.132 767.774 290.79 766.324V765.982C290.705 765.47 290.619 764.873 290.534 764.276C288.739 753.611 287.285 742.178 286.602 730.233C286.516 728.1 286.345 726.052 286.26 723.919C286.174 721.786 286.089 719.568 286.089 717.435C285.832 703.954 286.602 689.876 288.653 675.627C289.423 670.081 290.448 664.45 291.731 658.819C292.671 654.723 293.697 650.628 294.808 646.447C295.065 645.679 295.236 644.912 295.492 644.144C298.142 634.929 301.476 625.8 305.579 616.67C305.921 615.817 306.349 615.049 306.691 614.196C309.768 607.626 313.188 600.971 317.035 594.487C317.462 593.804 317.804 593.122 318.231 592.524C320.454 588.855 322.933 585.187 325.498 581.518C329.259 576.228 333.277 570.938 337.637 565.733C343.706 558.566 349.69 552.082 355.674 546.195C358.153 543.721 360.547 541.417 363.026 539.198C365.078 537.321 367.215 535.444 369.267 533.738C369.352 533.653 369.523 533.567 369.609 533.482C374.396 529.387 379.183 525.718 383.885 522.39C384.825 521.708 385.765 521.025 386.791 520.428C391.407 517.271 396.024 514.455 400.554 511.981C401.58 511.469 402.521 510.872 403.547 510.36C427.654 497.647 450.478 493.552 471.337 493.637C472.363 493.637 473.303 493.637 474.329 493.637C479.202 493.722 483.989 494.064 488.691 494.575C508.352 496.623 525.963 501.657 541.179 505.155C542.205 505.411 543.145 505.582 544.171 505.838C554.088 508.056 562.807 509.507 570.415 508.909C582.469 507.971 592.214 499.524 602.815 487.153C603.584 486.214 604.353 485.361 605.123 484.337C611.278 476.829 617.689 468.126 625.041 458.826C626.409 457.119 627.777 455.413 629.144 453.707C631.88 450.294 634.786 446.796 637.864 443.297C638.377 442.785 638.804 442.188 639.317 441.676C640.343 440.482 641.369 439.373 642.48 438.178C642.908 437.666 643.421 437.154 643.933 436.642C647.438 432.888 651.029 429.134 654.961 425.38C671.716 409.254 692.746 393.726 720.529 381.866C732.241 376.832 745.234 372.481 759.596 368.983C774.984 365.228 791.91 362.328 809.349 360.706C813.538 360.28 817.727 359.939 822.001 359.683C826.532 359.427 831.062 359.171 835.679 359.085C838.414 359 841.15 359 843.885 359C850.639 359 857.478 359.171 864.231 359.597C866.625 359.768 869.018 359.939 871.412 360.109C900.563 362.498 928.688 368.812 952.453 380.245C969.123 388.265 1031.78 424.015 1050.16 484.508C1055.98 503.62 1057.34 525.12 1051.53 549.096C1030.76 633.734 1062.39 644.229 1101.88 684.586C1154.46 738.338 1171.47 810.947 1129.15 848.232Z" fill="#D1ECF8"/>
<path d="M407.646 458.826H384.138V435.363C384.138 431.096 380.718 427.684 376.444 427.684C372.17 427.684 368.75 431.096 368.75 435.363V458.826H345.242C340.967 458.826 337.548 462.239 337.548 466.505C337.548 470.771 340.967 474.184 345.242 474.184H368.75V497.647C368.75 501.913 372.17 505.326 376.444 505.326C380.718 505.326 384.138 501.913 384.138 497.647V474.184H407.646C411.921 474.184 415.34 470.771 415.34 466.505C415.34 462.239 411.921 458.826 407.646 458.826Z" fill="#23CAB4"/>
<path d="M1116.67 575.973H1097.18V556.52C1097.18 553.022 1094.27 550.121 1090.77 550.121C1087.26 550.121 1084.36 553.022 1084.36 556.52V575.973H1064.86C1061.36 575.973 1058.45 578.874 1058.45 582.373C1058.45 585.871 1061.36 588.772 1064.86 588.772H1084.36V608.225C1084.36 611.723 1087.26 614.624 1090.77 614.624C1094.27 614.624 1097.18 611.723 1097.18 608.225V588.772H1116.67C1120.17 588.772 1123.08 585.871 1123.08 582.373C1123.08 578.874 1120.17 575.973 1116.67 575.973Z" fill="#70CEEC"/>
<path d="M447.313 546.197H432.011V530.925C432.011 528.109 429.788 525.891 426.967 525.891C424.146 525.891 421.923 528.109 421.923 530.925V546.197H406.536C403.715 546.197 401.492 548.415 401.492 551.231C401.492 554.047 403.715 556.265 406.536 556.265H421.923V571.537C421.923 574.353 424.146 576.571 426.967 576.571C429.788 576.571 432.011 574.353 432.011 571.537V556.265H447.313C450.134 556.265 452.356 554.047 452.356 551.231C452.356 548.415 450.048 546.197 447.313 546.197Z" fill="#70CEEC"/>
<path d="M1136.5 474.695H1121.2V459.423C1121.2 456.607 1118.98 454.389 1116.16 454.389C1113.33 454.389 1111.11 456.607 1111.11 459.423V474.695H1095.81C1092.99 474.695 1090.77 476.913 1090.77 479.729C1090.77 482.545 1092.99 484.763 1095.81 484.763H1111.11V500.036C1111.11 502.851 1113.33 505.07 1116.16 505.07C1118.98 505.07 1121.2 502.851 1121.2 500.036V484.763H1136.5C1139.32 484.763 1141.55 482.545 1141.55 479.729C1141.55 476.913 1139.32 474.695 1136.5 474.695Z" fill="#23CAB4"/>
</g>
<defs>
<linearGradient id="paint0_linear_32507_90193" x1="720" y1="0" x2="720" y2="849" gradientUnits="userSpaceOnUse">
<stop offset="0.113048" stop-color="white"/>
<stop offset="0.982114" stop-color="#D6EDF6"/>
</linearGradient>
<clipPath id="clip0_32507_90193">
<rect width="867" height="490" fill="white" transform="translate(286 359)"/>
</clipPath>
</defs>
</svg>
